<svg width="136" height="41" viewBox="0 0 136 41" fill="none" xmlns="http://www.w3.org/2000/svg">
<path d="M3.54544 12.2273V9.72726H21V12.2273H13.6818V33H10.8636V12.2273H3.54544ZM25.3494 33V9.72726H28.1676V21.2727H28.4403L38.8949 9.72726H42.5767L32.804 20.2273L42.5767 33H39.1676L31.0767 22.1818L28.1676 25.4545V33H25.3494Z" fill="#FF004F"/>
<path d="M1.54544 10.2273V7.72726H19V10.2273H11.6818V31H8.86363V10.2273H1.54544ZM23.3494 31V7.72726H26.1676V19.2727H26.4403L36.8949 7.72726H40.5767L30.804 18.2273L40.5767 31H37.1676L29.0767 20.1818L26.1676 23.4545V31H23.3494Z" fill="#00F2EA"/>
<path d="M2.54544 11.2273V8.72726H20V11.2273H12.6818V32H9.86363V11.2273H2.54544ZM24.3494 32V8.72726H27.1676V20.2727H27.4403L37.8949 8.72726H41.5767L31.804 19.2273L41.5767 32H38.1676L30.0767 21.1818L27.1676 24.4545V32H24.3494Z" fill="#2F2F2F"/>
<path d="M54.625 33H46.9943V8.27274H54.9631C57.3617 8.27274 59.4143 8.76777 61.1207 9.75782C62.8272 10.7398 64.1352 12.1525 65.0447 13.9957C65.9543 15.831 66.4091 18.0284 66.4091 20.5881C66.4091 23.1638 65.9503 25.3814 65.0327 27.2408C64.1151 29.0921 62.7789 30.5168 61.0241 31.5149C59.2694 32.505 57.1364 33 54.625 33ZM49.9886 30.3438H54.4318C56.4763 30.3438 58.1707 29.9493 59.5149 29.1605C60.8591 28.3717 61.8613 27.2488 62.5213 25.7919C63.1813 24.335 63.5114 22.6004 63.5114 20.5881C63.5114 18.5919 63.1854 16.8733 62.5334 15.4325C61.8814 13.9837 60.9074 12.8729 59.6115 12.1001C58.3156 11.3194 56.7017 10.929 54.7699 10.929H49.9886V30.3438ZM78.5795 33.3864C76.9053 33.3864 75.4363 32.9879 74.1726 32.1911C72.9169 31.3942 71.9349 30.2794 71.2266 28.8466C70.5263 27.4138 70.1761 25.7396 70.1761 23.8239C70.1761 21.892 70.5263 20.2057 71.2266 18.7649C71.9349 17.3241 72.9169 16.2053 74.1726 15.4084C75.4363 14.6115 76.9053 14.2131 78.5795 14.2131C80.2538 14.2131 81.7188 14.6115 82.9744 15.4084C84.2382 16.2053 85.2202 17.3241 85.9205 18.7649C86.6288 20.2057 86.983 21.892 86.983 23.8239C86.983 25.7396 86.6288 27.4138 85.9205 28.8466C85.2202 30.2794 84.2382 31.3942 82.9744 32.1911C81.7188 32.9879 80.2538 33.3864 78.5795 33.3864ZM78.5795 30.8267C79.8513 30.8267 80.8977 30.5007 81.7188 29.8487C82.5398 29.1967 83.1475 28.3395 83.5419 27.277C83.9363 26.2145 84.1335 25.0634 84.1335 23.8239C84.1335 22.5843 83.9363 21.4292 83.5419 20.3587C83.1475 19.2881 82.5398 18.4228 81.7188 17.7628C80.8977 17.1027 79.8513 16.7727 78.5795 16.7727C77.3078 16.7727 76.2614 17.1027 75.4403 17.7628C74.6193 18.4228 74.0116 19.2881 73.6172 20.3587C73.2228 21.4292 73.0256 22.5843 73.0256 23.8239C73.0256 25.0634 73.2228 26.2145 73.6172 27.277C74.0116 28.3395 74.6193 29.1967 75.4403 29.8487C76.2614 30.5007 77.3078 30.8267 78.5795 30.8267ZM94.9034 33L89.2528 14.4545H92.2472L96.2557 28.6534H96.4489L100.409 14.4545H103.452L107.364 28.6051H107.557L111.565 14.4545H114.56L108.909 33H106.108L102.051 18.7528H101.761L97.7045 33H94.9034ZM121.176 21.8438V33H118.327V14.4545H121.08V17.3523H121.321C121.756 16.4105 122.416 15.6539 123.301 15.0824C124.187 14.5028 125.33 14.2131 126.73 14.2131C127.986 14.2131 129.085 14.4706 130.026 14.9858C130.968 15.4929 131.701 16.2656 132.224 17.304C132.747 18.3343 133.009 19.6383 133.009 21.2159V33H130.159V21.4091C130.159 19.9522 129.781 18.8172 129.024 18.0043C128.268 17.1832 127.229 16.7727 125.909 16.7727C125 16.7727 124.187 16.9699 123.47 17.3643C122.762 17.7588 122.202 18.3343 121.792 19.0909C121.381 19.8475 121.176 20.7652 121.176 21.8438Z" fill="#2F2F2F"/>
</svg>
